<?xml version="1.0" encoding="UTF-8"?>
<svg width="216px" height="38px" viewBox="0 0 216 38" version="1.1" xmlns="http://www.w3.org/2000/svg" xmlns:xlink="http://www.w3.org/1999/xlink">
    <!-- Generator: Sketch 49.2 (51160) - http://www.bohemiancoding.com/sketch -->
    <title>Group</title>
    <desc>Created with Sketch.</desc>
    <defs></defs>
    <g id="Page-1" stroke="none" stroke-width="1" fill="none" fill-rule="evenodd">
        <g id="Group" fill="#FF180A">
            <path d="M160,11 L170,11 L170,23 C170.333333,23 170.833333,23 171.5,23 C171.911586,22.7648081 175.5,17.5 180.5,11 C181.833333,11 185.333333,11 191,11 L191,38 C185.666667,38 182.333333,38 181,38 C181,36.5 181,26.5200503 181,26 C179.5,26 180,26 179.5,26 C178.166667,28.3333333 175.333333,32.3333333 171,38 L160,38 L160,11 Z" id="Rectangle-6"></path>
            <path d="M195,10 C196.666667,10 198,10 199,10 C199,9.38778367 199,5.5 200,4 C201.253734,2.1193992 207.5,-2.84840762e-20 209,7.74020719e-21 C210,-4.05588373e-20 210.333333,1.37182356e-19 210,5.40963787e-19 L210,10 L216,10 C216,12 216,14 216,16 C216,17 215,18 214,18 C212.333333,18 211,18 210,18 L210,30 L215,30 L216,30 C216,31.6500425 216,32.6500425 216,33 C216,34 216,35.3941398 216,36 C216,37.5 214.5,38 213,38 C212,38 210.5,38 205.5,38 C201.5,38 199,35 199,31 C199,27.6666667 199,23.3333333 199,18 L195,18 L195,10 Z" id="Rectangle-7"></path>
            <path d="M125,11 L136,11 L136,21 C136.666667,21 137.166667,21 137.5,21 C140,15 143,11 145,11 C149,11 152,11 155,11 C154.985072,11.0503834 155,16.5 155,18 C154.27794,18 152.5,18 151,18 C149.832043,19.0020985 148,21 145.169806,24.986731 C146.5,25 147,24.973462 147.5,24.986731 C149.5,24.9513356 156,36 156,38 C155.245634,38 151.266549,38 144.062744,38 C142.5,36.5 138.124339,28 137.5,28 C137.179597,28 136.5,28 136,28 C136,29 136,32.3333333 136,38 L125,38 L125,11 Z" id="Rectangle-5"></path>
            <path d="M56,11 L66,11 L66,21 C66.6666667,21 67.1666667,21 67.5,21 C70,15 73,11 75,11 C79,11 82,11 85,11 C84.9850716,11.0503834 85,16.5 85,18 C84.2779398,18 82.5,18 81,18 C79.8320427,19.0020985 78,21 75.1698064,24.986731 C76.5,25 77,24.973462 77.5,24.986731 C79.5,24.9513356 86,36 86,38 C85.245634,38 81.2665487,38 74.0627441,38 C72.5,36.5 68.1243388,28 67.5,28 C67.1795969,28 66.5,28 66,28 C66,29 66,32.3333333 66,38 L56,38 L56,11 Z" id="Rectangle-5"></path>
            <path d="M37,11 L46,11 L46,21 C46.6666667,21 47.1666667,21 47.5,21 C50,15 53,11 55,11 C59,11 62,11 65,11 C64.9850716,11.0503834 65,16.5 65,18 C64.2779398,18 62.5,18 61,18 C59.8320427,19.0020985 58,21 55.1698064,24.986731 C56.5,25 57,24.973462 57.5,24.986731 C59.5,24.9513356 66,36 66,38 C65.245634,38 61.2665487,38 54.0627441,38 C52.5,36.5 48.1243388,28 47.5,28 C47.1795969,28 46.5,28 46,28 C46,29 46,32.3333333 46,38 L37,38 L37,11 Z" id="Rectangle-5" transform="translate(51.500000, 24.500000) scale(-1, 1) translate(-51.500000, -24.500000) "></path>
            <path d="M0,0 C6.88476562,3.3618941e-14 14.077474,7.62515051e-14 21.578125,1.27897692e-13 C29.552002,1.82201476e-13 35,8.30419922 35,12.8847656 C35,19.1888794 35,18.4221151 35,24.9804688 C35,32.8520508 30.5847168,38 20.970459,38 C14.1426617,38 7.15250875,38 0,38 L0,0 Z M11,8 L11,30.171875 C11.5700808,30.171875 13.1231407,30.171875 15.6591797,30.171875 C19.3684082,30.171875 24,28.9929199 24,23.1197574 C24,19.1502276 24,19.6143218 24,15.7986739 C24,11.8740234 20.2390137,8 15.6591797,8 C12.8732236,8 11.3201637,8 11,8 Z" id="Combined-Shape"></path>
            <path d="M119,26.4137931 C110,26.4137931 105.5,26.4137931 98,26.4137931 C98,30.2758621 101,32 103.5,32 C105.5,32 108.5,31.5 109,29.3103448 C109.5,29.3103448 110,29.3103448 111,29.3103448 C113.5,29.3103448 116,29.3103448 119,29.3103448 C119,30.1320921 118.5,31.5 118.5,31.5 C116.5,36.5 111.5,38 103.5,38 C95.5,38 87,36.5 87,24 C87,12.5 97,10 103,10 C109.5,10 114.799021,12.3236769 117,16.5 C118.437084,19.2268438 119,23.0902317 119,26.4137931 Z M103,15.7931034 C100,15.7931034 98,18.2068966 98,21.5862069 C99.5,21.5862069 107,21.5862069 109,21.5862069 C109,17.7241379 106.5,15.7931034 104,15.7931034 C104,15.7931034 103.5,15.7931034 103,15.7931034 Z" id="Combined-Shape"></path>
        </g>
    </g>
</svg>