<?xml version="1.0" encoding="UTF-8"?>
<svg width="7px" height="11px" viewBox="0 0 7 11" version="1.1" xmlns="http://www.w3.org/2000/svg" xmlns:xlink="http://www.w3.org/1999/xlink">
    <!-- Generator: Sketch 50.2 (55047) - http://www.bohemiancoding.com/sketch -->
    <title>Group 2</title>
    <desc>Created with Sketch.</desc>
    <defs></defs>
    <g id="Page-1" stroke="none" stroke-width="1" fill="none" fill-rule="evenodd">
        <g id="A4-600dpi" transform="translate(-3612.000000, -2765.000000)" fill="#F3F3F3" fill-rule="nonzero">
            <g id="Group-2" transform="translate(3612.000000, 2765.000000)">
                <path d="M0.969669914,2.03033009 C0.676776695,1.73743687 0.676776695,1.26256313 0.969669914,0.969669914 C1.26256313,0.676776695 1.73743687,0.676776695 2.03033009,0.969669914 L6.03033009,4.96966991 C6.3232233,5.26256313 6.3232233,5.73743687 6.03033009,6.03033009 C5.73743687,6.3232233 5.26256313,6.3232233 4.96966991,6.03033009 L0.969669914,2.03033009 Z" id="Line-2"></path>
                <path d="M0.969669914,6.03033009 C0.676776695,5.73743687 0.676776695,5.26256313 0.969669914,4.96966991 C1.26256313,4.6767767 1.73743687,4.6767767 2.03033009,4.96966991 L6.03033009,8.96966991 C6.3232233,9.26256313 6.3232233,9.73743687 6.03033009,10.0303301 C5.73743687,10.3232233 5.26256313,10.3232233 4.96966991,10.0303301 L0.969669914,6.03033009 Z" id="Line-2" transform="translate(3.500000, 7.500000) scale(1, -1) translate(-3.500000, -7.500000) "></path>
            </g>
        </g>
    </g>
</svg>