<?xml version="1.0" encoding="iso-8859-1"?>
<!-- Generator: Adobe Illustrator 19.0.0, SVG Export Plug-In . SVG Version: 6.00 Build 0)  -->
<svg version="1.1" id="Capa_1" xmlns="http://www.w3.org/2000/svg" xmlns:xlink="http://www.w3.org/1999/xlink" x="0px" y="0px"
	 viewBox="0 0 480.002 480.002" style="enable-background:new 0 0 480.002 480.002;" xml:space="preserve">
<g>
	<g>
		<path d="M380.802,4.877c-0.488-0.276-0.99-0.527-1.504-0.752l-0.352-0.152c-0.347-0.135-0.702-0.247-1.064-0.336
			c-12.553-4.458-26.437,1.354-32.072,13.424l-134.808,283.84c-4.551,9.615-11.771,17.719-20.8,23.344
			c-2.299,1.475-4.706,2.774-7.2,3.888L25.018,397.637C3.846,406.959-5.76,431.681,3.563,452.853
			c6.691,15.195,21.725,25.004,38.327,25.007h222.024c22.673,0.049,43.123-13.622,51.744-34.592l71.64-173.128l20.744,200.52
			c0.411,4.088,3.851,7.2,7.96,7.2h48c4.341,0.001,7.891-3.46,8-7.8l8-312c0,0,0-0.072,0-0.112v-0.088v-3.52
			C480.076,89.081,440.967,30.155,380.802,4.877z M189.41,342.781c3.209-1.43,6.308-3.096,9.272-4.984
			c4.967-3.148,9.534-6.887,13.6-11.136c2.39-2.44,4.602-5.049,6.616-7.808c2.504-3.491,4.692-7.199,6.536-11.08L360.266,23.957
			c0.63-1.341,1.577-2.508,2.76-3.4c0.86-0.73,1.836-1.311,2.888-1.72c0.722-0.273,1.474-0.459,2.24-0.552
			c0.288-0.059,0.579-0.102,0.872-0.128c1.084-0.061,2.171,0.086,3.2,0.432l1.544,0.656c5.105,2.29,7.4,8.275,5.136,13.392
			l-161.6,351.248c-3.93,8.506-12.438,13.959-21.808,13.976H122.57c-8.61-0.015-16.556-4.627-20.84-12.096l-2.008-3.52
			L189.41,342.781z M456.202,461.861h-33l-22.856-221.032l63.144-63.144L456.202,461.861z M386.346,232.205
			c-0.745,0.743-1.336,1.627-1.736,2.6l-83.736,202.352c-6.16,14.976-20.766,24.739-36.96,24.704H41.89
			c-14.298,0.006-25.893-11.579-25.899-25.877c-0.004-10.284,6.079-19.596,15.499-23.723l53.528-23.552l2.848,4.976
			c7.124,12.451,20.359,20.146,34.704,20.176h72.928c15.614-0.029,29.793-9.114,36.344-23.288l161.6-351.248
			c1.225-2.739,1.964-5.671,2.184-8.664c42.58,26.692,68.417,73.426,68.376,123.68L386.346,232.205z"/>
	</g>
</g>
<g>
</g>
<g>
</g>
<g>
</g>
<g>
</g>
<g>
</g>
<g>
</g>
<g>
</g>
<g>
</g>
<g>
</g>
<g>
</g>
<g>
</g>
<g>
</g>
<g>
</g>
<g>
</g>
<g>
</g>
</svg>
