<?xml version="1.0" encoding="iso-8859-1"?>
<!-- Generator: Adobe Illustrator 18.0.0, SVG Export Plug-In . SVG Version: 6.00 Build 0)  -->
<!DOCTYPE svg PUBLIC "-//W3C//DTD SVG 1.1//EN" "http://www.w3.org/Graphics/SVG/1.1/DTD/svg11.dtd">
<svg version="1.1" id="Capa_1" xmlns="http://www.w3.org/2000/svg" xmlns:xlink="http://www.w3.org/1999/xlink" x="0px" y="0px"
	 viewBox="0 0 481.549 481.549" style="enable-background:new 0 0 481.549 481.549;" xml:space="preserve">
<path d="M446.871,41.738l-4.952-5.111l-6.452,3.004c-38.944,18.135-69.662,40.609-91.3,66.8
	c-17.587,21.287-29.229,45.015-34.603,70.524c-7.153,33.959-1.234,61.761,1.969,73.019c-17.181,23.627-34.024,53.841-51.219,91.688
	c-19.39-8.056-65.956-28.762-87.844-50.212l-8.195-8.031l-6.836,9.217c-31.466,42.427-75.988,59.036-119.045,75.099
	c-5.05,1.883-10.08,3.76-15.07,5.669C6.841,379.707-2.688,397.471,0.67,415.643c3.285,17.786,17.419,29.279,36.012,29.279
	l106.793-0.046l0.419-0.009c34.957-1.479,62.588-5.381,83.816-19.618c20.661-13.856,33.278-35.783,46.94-66.672
	c26.399-59.712,51.364-100.202,77.538-125.484c12.147,22.715,21.339,61.712,26.777,114.026c4.845,46.598,4.908,87.352,4.908,87.758
	l0.002,9.999h50.667l0.419-9.563c4.515-103.101,20.494-164.333,32.161-209.043c8.061-30.886,14.427-55.281,14.427-81.66
	C481.549,78.296,448.287,43.2,446.871,41.738z M216.569,408.639c-15.016,10.071-35.579,14.628-73.312,16.237l-106.58,0.046
	c-12.596,0-15.624-9.03-16.341-12.912c-1.377-7.451,1.662-16.689,10.132-19.929c4.939-1.889,9.918-3.746,14.916-5.61
	c42.914-16.009,87.194-32.525,121.394-73.388c25.784,20.857,66.582,39.061,85.291,46.83
	C239.705,386.238,229.67,399.853,216.569,408.639z M327.708,229.787c-1.828-12.349-2.683-29.905,1.637-49.688
	c4.839-22.158,15.164-42.841,30.691-61.475c18.406-22.088,44.243-41.412,76.868-57.506c8.121,11.158,24.645,39.295,24.645,83.492
	c0,10.015-1.086,19.944-2.904,30.278c-34.447,0.305-70.791,4.725-104.925,30.547C344.864,212.135,336.221,220.221,327.708,229.787z
	 M415.436,424.876h-11.678c-0.666-35.167-5.214-151.903-36.032-204.919c26.3-19.15,54.025-24.314,86.702-25.001
	c-1.966,8.279-4.23,16.962-6.658,26.264C436.242,265.398,420.583,325.409,415.436,424.876z"/>
<g>
</g>
<g>
</g>
<g>
</g>
<g>
</g>
<g>
</g>
<g>
</g>
<g>
</g>
<g>
</g>
<g>
</g>
<g>
</g>
<g>
</g>
<g>
</g>
<g>
</g>
<g>
</g>
<g>
</g>
</svg>
