<?xml version="1.0" encoding="UTF-8"?>
<svg width="139px" height="28px" viewBox="0 0 139 28" version="1.1" xmlns="http://www.w3.org/2000/svg" xmlns:xlink="http://www.w3.org/1999/xlink">
    <!-- Generator: Sketch 50.2 (55047) - http://www.bohemiancoding.com/sketch -->
    <title>logo</title>
    <desc>Created with Sketch.</desc>
    <defs></defs>
    <g id="Page-1" stroke="none" stroke-width="1" fill="none" fill-rule="evenodd">
        <g id="A4-600dpi" transform="translate(-3559.000000, -2722.000000)" fill="#C32821">
            <g id="logo" transform="translate(3559.000000, 2722.000000)">
                <path d="M0,5.68434189e-14 C4.07446071,1.90918274e-13 6.99294692,2.1939107e-13 8.75545862,1.42261807e-13 C17.2157815,-2.27373257e-13 25.0262451,5.68434189e-14 25.0262451,13.4118419 C25.0262451,26.8236837 16.2460166,27 8.75545862,27 C7.02543578,27 4.10694958,27.0000761 0,27.0002284 L0,5.68434189e-14 Z M7.6571706,7.03637695 L7.6571706,20 C8.80110378,20 10.35675,20 12.3241092,20 C14.9556947,19.3976237 16.2714875,17.0725911 16.2714875,13.0249023 C16.2714875,9.7734375 14.9556947,7.77726237 12.3241092,7.03637695 C10.2810382,7.03637695 8.72539201,7.03637695 7.6571706,7.03637695 Z" id="Combined-Shape"></path>
                <polygon id="Rectangle-3" points="25.9603271 7 35.0405273 7 38.9031982 13.0751953 38.9031982 7 45.0584106 7 45.0584106 13.0751953 49.0163574 7 57.9772949 7 51.00354 15.5292969 59 27 49.8924561 27 45.9745483 20.135437 45.0584106 20.135437 45.0584106 27 38.9031982 27 38.9031982 20.135437 38.0274048 20.135437 34.0423584 27 25 27 32.9657593 15.5292969"></polygon>
                <polygon id="Rectangle-6" points="89.034668 7 89.034668 13.003418 94.0415039 7 102 7 94.904541 15.6550293 102 27 94.0415039 27 89.034668 19.1188965 88.9979248 27 82 27 82 7"></polygon>
                <polygon id="Rectangle-7" points="104 7 111.032227 7 111.032227 17 116.551758 7 123.00647 7 123.00647 27 116.551758 27 116.551758 16.5876465 111.032227 27 104 27"></polygon>
                <path d="M127.989258,6.99755859 C127.989258,2.9991862 127.989258,1 127.989258,1 C127.989258,1 130.312744,1 134.959717,1 L134.959717,6.99755859 L139,6.99755859 L139,12.015625 L134.959717,12.015625 C134.959717,16.1844986 134.959717,18.847788 134.959717,20.0054932 C134.959717,20.3685502 135.608756,20.9731445 135.990356,20.9731445 C136.540519,20.9731445 137.543734,20.9731445 139,20.9731445 L139,27 L133.004395,27 C131.447754,27.108724 130.222738,26.6999512 129.329346,25.7736816 C128.435954,24.8474121 127.989258,23.6155599 127.989258,22.078125 L127.989258,12.015625 L125,12.015625 L125,6.99755859 L127.989258,6.99755859 Z" id="Rectangle-8"></path>
                <path d="M66,19 C66,21.6666667 67.1675625,22.7324219 69.5026876,22.7324219 C71.1487345,22.7324219 72.2357178,22.3399658 72.7003624,21.0124223 C72.7271074,20.9570004 75.1547877,20.9545555 80,21.0124223 C78.8852605,24.7403379 75.0674818,27.4318848 71,27.4318848 L68,27.4318848 C63.0294373,27.4318848 59,23.4024475 59,18.4318848 L59,16 C59,11.0294373 62.3553508,5.9753418 69.5026876,5.9753418 C76.6500244,5.9753418 80,11.0294373 80,16 C80,19.3137085 80,20.3137085 80,19 L66,19 Z M69.5,11.5432129 C67.1666667,11.5432129 66.0235596,12.6994106 66.0235596,14.9753418 L72.9919434,14.9753418 C72.9919434,12.6994106 71.8333333,11.5432129 69.5,11.5432129 Z" id="Combined-Shape"></path>
            </g>
        </g>
    </g>
</svg>