<?xml version="1.0" encoding="UTF-8"?>
<svg width="216px" height="38px" viewBox="0 0 216 38" version="1.1" xmlns="http://www.w3.org/2000/svg" xmlns:xlink="http://www.w3.org/1999/xlink">
    <!-- Generator: Sketch 49.2 (51160) - http://www.bohemiancoding.com/sketch -->
    <title>Group</title>
    <desc>Created with Sketch.</desc>
    <defs></defs>
    <g id="Page-1" stroke="none" stroke-width="1" fill="none" fill-rule="evenodd">
        <g id="Group" fill="#FF180A">
            <path d="M160,11 L170,11 L170,23 C170.333333,23 170.833333,23 171.5,23 C171.911586,22.7648081 175.5,17.5 180.5,11 C181.833333,11 185.333333,11 191,11 L191,38 C185.666667,38 182.333333,38 181,38 C181,36.5 181,26.5200503 181,26 C179.5,26 180,26 179.5,26 C178.166667,28.3333333 175.333333,32.3333333 171,38 L160,38 L160,11 Z" id="Rectangle-6"></path>
            <path d="M195,10 C196.666667,10 198,10 199,10 C199,9.38778367 199,5.5 200,4 C201.253734,2.1193992 207.5,-2.84840762e-20 209,7.74020719e-21 C210,-4.05588373e-20 210.333333,1.37182356e-19 210,5.40963787e-19 L210,10 L216,10 C216,12 216,14 216,16 C216,17 215,18 214,18 C212.333333,18 211,18 210,18 L210,30 L215,30 L216,30 C216,31.6500425 216,32.6500425 216,33 C216,34 216,35.3941398 216,36 C216,37.5 214.5,38 213,38 C212,38 210.5,38 205.5,38 C201.5,38 199,35 199,31 C199,27.6666667 199,23.3333333 199,18 L195,18 L195,10 Z" id="Rectangle-7"></path>
            <path d="M125,11 L136,11 L136,21 C136.666667,21 137.166667,21 137.5,21 C140,15 143,11 145,11 C149,11 152,11 155,11 C154.985072,11.0503834 155,16.5 155,18 C154.27794,18 152.5,18 151,18 C149.832043,19.0020985 148,21 145.169806,24.986731 C146.5,25 147,24.973462 147.5,24.986731 C149.5,24.9513356 156,36 156,38 C155.245634,38 151.266549,38 144.062744,38 C142.5,36.5 138.124339,28 137.5,28 C137.179597,28 136.5,28 136,28 C136,29 136,32.3333333 136,38 L125,38 L125,11 Z" id="Rectangle-5"></path>
            <path d="M58,10 L67.6666667,10 L67.6666667,20 C68.3111111,20 68.7944444,20 69.1166667,20 C71.5333333,14 74.4333333,10 76.3666667,10 C80.2333333,10 83.1333333,10 86.0333333,10 C86.0189025,10.0503834 86.0333333,15.5 86.0333333,17 C85.3353418,17 83.6166667,17 82.1666667,17 C81.0376413,18.0020985 79.2666667,20 76.5308128,23.986731 C77.8166667,24 78.3,23.973462 78.7833333,23.986731 C80.7166667,23.9513356 87,35 87,37 C86.2707795,37 82.4243304,37 75.4606527,37 C73.95,35.5 69.7201942,27 69.1166667,27 C68.8069436,27 68.15,27 67.6666667,27 C67.6666667,28 67.6666667,31.3333333 67.6666667,37 L58,37 L58,10 Z" id="Rectangle-5"></path>
            <path d="M39,10 L47.3793103,10 L47.3793103,20 C48,20 48.4655172,20 48.7758621,20 C51.1034483,14 53.8965517,10 55.7586207,10 C59.4827586,10 62.2758621,10 65.0689655,10 C65.0550666,10.0503834 65.0689655,15.5 65.0689655,17 C64.3967025,17 62.7413793,17 61.3448276,17 C60.257419,18.0020985 58.5517241,20 55.9167163,23.986731 C57.1551724,24 57.6206897,23.973462 58.0862069,23.986731 C59.9482759,23.9513356 66,35 66,37 C65.2976592,37 61.5929936,37 54.8860032,37 C53.4310345,35.5 49.3571431,27 48.7758621,27 C48.4775557,27 47.8448276,27 47.3793103,27 C47.3793103,28 47.3793103,31.3333333 47.3793103,37 L39,37 L39,10 Z" id="Rectangle-5" transform="translate(52.500000, 23.500000) scale(-1, 1) translate(-52.500000, -23.500000) "></path>
            <path d="M0,0 C6.88476562,3.3618941e-14 14.077474,7.62515051e-14 21.578125,1.27897692e-13 C29.552002,1.82201476e-13 35,8.30419922 35,12.8847656 C35,19.1888794 35,18.4221151 35,24.9804688 C35,32.8520508 30.5847168,38 20.970459,38 C14.1426617,38 7.15250875,38 0,38 L0,0 Z M11,8 L11,30.171875 C11.5700808,30.171875 13.1231407,30.171875 15.6591797,30.171875 C19.3684082,30.171875 24,28.9929199 24,23.1197574 C24,19.1502276 24,19.6143218 24,15.7986739 C24,11.8740234 20.2390137,8 15.6591797,8 C12.8732236,8 11.3201637,8 11,8 Z" id="Combined-Shape"></path>
            <path d="M120,26.4137931 C111,26.4137931 106.5,26.4137931 99,26.4137931 C99,30.2758621 102,32 104.5,32 C106.5,32 109.5,31.5 110,29.3103448 C110.5,29.3103448 111,29.3103448 112,29.3103448 C114.5,29.3103448 117,29.3103448 120,29.3103448 C120,30.1320921 119.5,31.5 119.5,31.5 C117.5,36.5 112.5,38 104.5,38 C96.5,38 88,36.5 88,24 C88,12.5 98,10 104,10 C110.5,10 115.799021,12.3236769 118,16.5 C119.437084,19.2268438 120,23.0902317 120,26.4137931 Z M104,15.7931034 C101,15.7931034 99,18.2068966 99,21.5862069 C100.5,21.5862069 108,21.5862069 110,21.5862069 C110,17.7241379 107.5,15.7931034 105,15.7931034 C105,15.7931034 104.5,15.7931034 104,15.7931034 Z" id="Combined-Shape"></path>
        </g>
    </g>
</svg>