<?xml version="1.0" encoding="iso-8859-1"?>
<!-- Generator: Adobe Illustrator 19.0.0, SVG Export Plug-In . SVG Version: 6.00 Build 0)  -->
<svg version="1.1" id="Capa_1" xmlns="http://www.w3.org/2000/svg" xmlns:xlink="http://www.w3.org/1999/xlink" x="0px" y="0px"
	 viewBox="0 0 512 512" style="enable-background:new 0 0 512 512;" xml:space="preserve">
<g>
	<g>
		<path d="M475.825,249.752c-48.678-9.735-91.487-17.42-146.803-35.156c2.347-6.185,0.367-13.27-5.022-17.312l-107.425-80.569
			c-11.81-8.858-27.223-11.36-41.23-6.691l-18.167,6.056C120.94,128.16,83.198,134.284,45,134.284c-24.813,0-45,20.187-45,45
			c0,6.042,0,170.767,0,180c0,24.813,20.187,45,45,45h90c5.682,0,10.875-3.21,13.417-8.292L165,362.825l16.583,33.167
			c2.541,5.082,7.735,8.292,13.417,8.292h272c24.813,0,45-20.187,45-45c0-7.552,0-54.675,0-65.406
			C512,272.502,496.786,253.944,475.825,249.752z M30,255.791c29.342,5.981,52.512,29.151,58.493,58.493H30V255.791z
			 M125.729,374.284H45c-8.271,0-15-6.729-15-15v-15c11.769,0,92.075,0,110.729,0L125.729,374.284z M156.136,314.283h-37.209
			c-6.6-45.914-43.011-82.326-88.927-88.923v-46.076c0-8.271,6.729-15,15-15c41.428,0,82.362-6.643,121.665-19.743l18.167-6.056
			c4.669-1.556,9.807-0.723,13.744,2.23l7.875,5.906l-22.056,22.056c-5.858,5.858-5.858,15.355,0,21.213
			c5.858,5.858,15.355,5.858,21.213,0l25.087-25.087l27.185,20.389l-22.056,22.056c-5.858,5.858-5.858,15.355,0,21.213
			c5.857,5.858,15.355,5.858,21.213,0l25.087-25.087l13.864,10.398l-16.109,32.219c-2.558,5.115-7.699,8.292-13.417,8.292h-4.377
			C218.724,254.283,178.471,277.03,156.136,314.283z M482,359.284c0,8.271-6.729,15-15,15H204.271l-15-30
			c14.247,0,277.749,0,292.729,0V359.284z M482,314.285c-17.515,0-277.46,0-288.633,0c17.407-18.921,42.054-30,68.715-30h4.377
			c17.154,0,32.577-9.531,40.25-24.875l8.823-17.646c58.078,18.986,103.487,27.222,154.41,37.406
			c6.987,1.397,12.058,7.583,12.058,14.709V314.285z"/>
	</g>
</g>
<g>
</g>
<g>
</g>
<g>
</g>
<g>
</g>
<g>
</g>
<g>
</g>
<g>
</g>
<g>
</g>
<g>
</g>
<g>
</g>
<g>
</g>
<g>
</g>
<g>
</g>
<g>
</g>
<g>
</g>
</svg>
